# xmcd CD database file
#
# Track frame offsets:
#	150
#	26180
#	53815
#	87395
#	111467
#	134210
#	161595
#	192728
#	219450
#	248697
#
# Disc length: 3619 seconds
#
# Revision: 0
# Processed by: cddbd v1.5.2PL0 Copyright (c) Steve Scherf et al.
# Submitted via: CDex 1.51
#
DISCID=9b0e210a
DTITLE=De Las Alturas de Los Andes - Natural Word
DYEAR=2007
DGENRE=New Age
TTITLE0=Deep Forest
TTITLE1=Birdsong
TTITLE2=Rainstorm
TTITLE3=By the Sea
TTITLE4=Thunderstorm (Wind, Rain Thunder)
TTITLE5=Dawn in the Jungle
TTITLE6=Forest Stream
TTITLE7=Cascading Waterfalls
TTITLE8=Natural Word
TTITLE9=Fire in the Night
EXTD=YEAR: 2007
EXTT0=
EXTT1=
EXTT2=
EXTT3=
EXTT4=
EXTT5=
EXTT6=
EXTT7=
EXTT8=
EXTT9=
PLAYORDER=
